<svg width="32" height="32" viewBox="0 0 32 32" fill="none" xmlns="http://www.w3.org/2000/svg">
<g clip-path="url(#clip0_192_149)">
<path d="M23.3594 4H8.64062C6.08125 4 4 6.08125 4 8.64062V13.5437V23.3688C4 25.9281 6.08125 28.0094 8.64062 28.0094H23.3594C25.9187 28.0094 28 25.9281 28 23.3688V13.5344V8.63125C27.9906 6.08125 25.9094 4 23.3594 4ZM24.6906 6.76562H25.225V7.29063V10.8344L21.1656 10.8438L21.1562 6.775L24.6906 6.76562ZM12.5687 13.5344C13.3375 12.475 14.5844 11.7719 15.9906 11.7719C17.3969 11.7719 18.6437 12.4656 19.4125 13.5344C19.9187 14.2281 20.2094 15.0812 20.2094 16C20.2094 18.325 18.3156 20.2281 15.9813 20.2281C13.6469 20.2281 11.7719 18.325 11.7719 16C11.7719 15.0812 12.0719 14.2281 12.5687 13.5344ZM25.6562 23.3594C25.6562 24.625 24.625 25.6562 23.3594 25.6562H8.64062C7.375 25.6562 6.34375 24.625 6.34375 23.3594V13.5344H9.925C9.61562 14.2938 9.4375 15.1281 9.4375 16C9.4375 19.6187 12.3813 22.5625 16 22.5625C19.6187 22.5625 22.5625 19.6187 22.5625 16C22.5625 15.1281 22.3844 14.2938 22.075 13.5344H25.6562V23.3594Z" fill="#E7E1DA"/>
</g>
<defs>
<clipPath id="clip0_192_149">
<rect width="24" height="24" fill="white" transform="translate(4 4)"/>
</clipPath>
</defs>
</svg>
