<svg width="32" height="32" viewBox="0 0 32 32" fill="none" xmlns="http://www.w3.org/2000/svg">
<g clip-path="url(#clip0_192_191)">
<path d="M20.554 19.537C16.56 17.6912 10.9697 18.5077 10.7337 18.5432C10.2076 18.6228 9.8455 19.1136 9.92501 19.6397C10.0045 20.1658 10.4957 20.5275 11.0214 20.4484C11.0736 20.4404 16.2708 19.68 19.7457 21.286C19.8764 21.3465 20.014 21.3752 20.1493 21.3752C20.5133 21.375 20.8616 21.1678 21.0244 20.8158C21.2475 20.3328 21.037 19.7603 20.554 19.537Z" fill="#E7E1DA"/>
<path d="M21.676 16.0675C17.1401 13.9714 10.7793 14.9003 10.5108 14.9408C9.98488 15.0203 9.62304 15.5109 9.7023 16.0367C9.78142 16.5627 10.2724 16.9251 10.7981 16.8461C10.8582 16.837 16.8616 15.9653 20.8677 17.8166C20.9987 17.8771 21.136 17.9058 21.2713 17.9058C21.6353 17.9056 21.9837 17.6985 22.1465 17.3463C22.3697 16.8633 22.159 16.2908 21.676 16.0675Z" fill="#E7E1DA"/>
<path d="M22.4293 12.4432C17.419 10.1277 10.3821 11.1552 10.085 11.2C9.5591 11.2795 9.19726 11.77 9.27651 12.2959C9.35577 12.8218 9.84683 13.1846 10.3723 13.1051C10.4395 13.095 17.1404 12.1216 21.621 14.1922C21.7517 14.2527 21.8893 14.2813 22.0245 14.2813C22.3886 14.2813 22.7369 14.074 22.8997 13.7219C23.1229 13.2389 22.9122 12.6665 22.4293 12.4432Z" fill="#E7E1DA"/>
<path d="M16.0001 4C9.38316 4 4 9.38303 4 15.9996C4 22.6165 9.38316 27.9997 16.0001 27.9997C22.6168 27.9997 28 22.6165 28 15.9996C28 9.38303 22.6168 4 16.0001 4ZM16.0001 26.073C10.4456 26.073 5.92673 21.5542 5.92673 15.9996C5.92673 10.4453 10.4456 5.9266 16.0001 5.9266C21.5544 5.9266 26.0733 10.4453 26.0733 15.9996C26.0733 21.5542 21.5544 26.073 16.0001 26.073Z" fill="#E7E1DA"/>
</g>
<defs>
<clipPath id="clip0_192_191">
<rect width="24" height="24" fill="white" transform="translate(4 4)"/>
</clipPath>
</defs>
</svg>
