<svg width="32" height="32" viewBox="0 0 32 32" fill="none" xmlns="http://www.w3.org/2000/svg">
<g clip-path="url(#clip0_192_214)">
<path d="M5.45204 4H7.59414L8.97395 8.27848H9.10739L10.4233 4H12.5838L10.1085 10.2625V14.705H7.9823V10.4617L5.45204 4ZM12.8087 8.61012C12.8087 7.98198 13.0649 7.48277 13.5775 7.11009C14.0894 6.73746 14.7776 6.55114 15.6422 6.55114C16.4296 6.55114 17.0744 6.74802 17.5768 7.14057C18.0804 7.53312 18.3315 8.0382 18.3315 8.65699V12.8464C18.3315 13.5402 18.0845 14.0851 17.5919 14.48C17.0989 14.8749 16.4197 15.073 15.5559 15.073C14.7235 15.073 14.0577 14.869 13.5579 14.4613C13.0588 14.0535 12.8087 13.505 12.8087 12.8148V8.61012ZM14.7669 12.9671C14.7669 13.1909 14.834 13.362 14.9698 13.4851C15.1053 13.607 15.2986 13.6667 15.5501 13.6667C15.808 13.6667 16.013 13.6058 16.1644 13.4816C16.3162 13.3562 16.3924 13.1851 16.3924 12.9671V8.54915C16.3924 8.37218 16.3145 8.22921 16.1598 8.12025C16.0052 8.01124 15.8019 7.95615 15.5501 7.95615C15.3184 7.95615 15.1294 8.01124 14.9846 8.12025C14.8393 8.22921 14.7669 8.37218 14.7669 8.54915V12.9671ZM25.2906 6.68124V14.7929H23.3851V13.8976C23.0333 14.2281 22.6682 14.4788 22.2878 14.6523C21.9082 14.8234 21.5389 14.9101 21.1819 14.9101C20.7412 14.9101 20.4085 14.7894 20.1852 14.548C19.9619 14.3065 19.8503 13.9445 19.8503 13.4616V6.68124H21.7564V12.8992C21.7564 13.0925 21.7965 13.2308 21.8761 13.3175C21.9564 13.4031 22.0855 13.4464 22.264 13.4464C22.4047 13.4464 22.5821 13.389 22.7954 13.2753C23.01 13.1617 23.2065 13.0163 23.385 12.8394V6.68124H25.2906ZM23.5049 21.0378C23.4113 20.9334 23.2624 20.8796 23.0577 20.8796C22.8438 20.8796 22.6903 20.9334 22.5973 21.0378C22.5042 21.1432 22.4577 21.3178 22.4577 21.5616V22.0667H23.645V21.5616C23.645 21.3178 23.5985 21.1432 23.5049 21.0378ZM17.8734 24.8405C17.9757 24.8826 18.0839 24.9026 18.1978 24.9026C18.3629 24.9026 18.4827 24.8627 18.5607 24.7807C18.6385 24.6998 18.6769 24.565 18.6769 24.3799V21.4596C18.6769 21.2628 18.6292 21.1139 18.5339 21.012C18.4379 20.91 18.2979 20.8596 18.1164 20.8596C18.0205 20.8596 17.9257 20.8783 17.832 20.9159C17.7384 20.9545 17.646 21.0143 17.5547 21.094V24.6354C17.664 24.7315 17.7704 24.7994 17.8734 24.8405ZM26.7123 18.6577C26.7123 17.2515 25.2789 16.1112 23.5124 16.1112C20.9924 16.0256 18.4136 15.9882 15.7827 15.9928C13.1527 15.9881 10.5739 16.0256 8.05296 16.1112C6.28736 16.1112 4.85405 17.2514 4.85405 18.6577C4.74792 19.7698 4.70196 20.883 4.70606 21.9963C4.70201 23.1096 4.74792 24.2228 4.85405 25.3361C4.85405 26.7412 6.28736 27.8814 8.05296 27.8814C10.5739 27.9658 13.1527 28.0033 15.7827 27.9998C18.4136 28.0033 20.9924 27.9658 23.5124 27.8814C25.2789 27.8814 26.7123 26.7412 26.7123 25.3361C26.8181 24.2228 26.864 23.1096 26.8593 21.9963C26.864 20.883 26.8181 19.7698 26.7123 18.6577ZM9.50221 25.744V25.8284H7.98868V25.744V19.0831H6.42281V18.9999V17.9382V17.8551H11.0684V17.9382V18.9999V19.0831H9.50221V25.744ZM14.8863 20.0077V25.744V25.8284H13.5426V25.744V25.185C13.2943 25.4228 13.0369 25.6022 12.7692 25.7264C12.5009 25.8494 12.241 25.9115 11.9886 25.9115C11.6781 25.9115 11.444 25.8248 11.2865 25.6525C11.1286 25.4791 11.0498 25.219 11.0498 24.8721V24.7877V20.0077V19.9245H12.3942V20.0077V24.3857C12.3942 24.5229 12.4221 24.6236 12.4781 24.6846C12.5349 24.7467 12.6261 24.7772 12.752 24.7772C12.8512 24.7772 12.9759 24.7361 13.1271 24.6553C13.2777 24.5732 13.4161 24.469 13.5426 24.3424V20.0077V19.9245H14.8863V20.0077ZM20.0603 21.394V24.5381V24.6225C20.0603 25.0362 19.955 25.3525 19.7446 25.5729C19.534 25.7908 19.2293 25.901 18.8316 25.901C18.5688 25.901 18.3351 25.8588 18.1292 25.7744C17.9228 25.6889 17.7315 25.5576 17.5547 25.3806V25.7439V25.8283H16.1982V25.7439V17.9382V17.855H17.5547V17.9382V20.3944C17.7362 20.2163 17.928 20.0815 18.1316 19.9901C18.3357 19.8975 18.5422 19.8507 18.7502 19.8507C19.1747 19.8507 19.5003 19.9749 19.7242 20.2233C19.948 20.4718 20.0603 20.8339 20.0603 21.3097V21.394ZM25.0283 21.5721V22.9702V23.0546H22.4577V24.0682C22.4577 24.3741 22.5019 24.5862 22.5903 24.7045C22.6792 24.8229 22.8304 24.8827 23.0443 24.8827C23.2671 24.8827 23.4235 24.8323 23.5124 24.7315C23.6008 24.6319 23.645 24.4104 23.645 24.0682V23.7483V23.6639H25.0284V23.7483V24.101V24.1854C25.0284 24.7818 24.8603 25.2307 24.5231 25.533C24.1864 25.8354 23.6834 25.9854 23.0141 25.9854C22.4123 25.9854 21.9391 25.8248 21.593 25.5049C21.2477 25.185 21.0744 24.7444 21.0744 24.1854V24.101V21.5721V21.489C21.0744 20.9839 21.2645 20.5725 21.6437 20.2538C22.0233 19.9362 22.5147 19.7768 23.1159 19.7768C23.7311 19.7768 24.2032 19.9245 24.5336 20.2186C24.8627 20.5128 25.0284 20.937 25.0284 21.489V21.5721H25.0283Z" fill="#E7E1DA"/>
</g>
<defs>
<clipPath id="clip0_192_214">
<rect width="22.5882" height="24" fill="white" transform="translate(4.70587 4)"/>
</clipPath>
</defs>
</svg>
